<svg width="36" height="36" viewBox="0 0 36 36" fill="none" xmlns="http://www.w3.org/2000/svg"><g clip-path="url(#a)"><path d="M35.592 9.122a6.693 6.693 0 0 0-3.405-8.22l-.239-.576a.528.528 0 0 0-.69-.286l-4.686 1.941c-.41.17-.727.488-.896.896-.17.409-.17.859 0 1.267l.014.035-18.423 7.734c-.27.111-.48.321-.591.59-.112.27-.112.567 0 .837l.229.553-3.71 1.537-.013-.033a1.085 1.085 0 0 0-.591-.591 1.086 1.086 0 0 0-.836 0l-1.042.431c-.269.112-.479.322-.59.591-.112.27-.112.567 0 .836l1.725 4.166a1.085 1.085 0 0 0 1.009.674c.141 0 .283-.027.418-.083l1.041-.432c.27-.111.48-.321.591-.59.112-.27.112-.567 0-.836l-.013-.033 3.71-1.537.229.554a1.084 1.084 0 0 0 1.008.674 1.1 1.1 0 0 0 .42-.084l1.478-.62a.538.538 0 0 0 .164-.07l4.4-1.847c.062.074.128.143.198.208L6.275 35.215a.528.528 0 1 0 .924.513l4.232-7.619h6.05v7.362a.528.528 0 0 0 1.056 0V28.11h6.05l4.232 7.618a.528.528 0 1 0 .924-.513L19.517 16.808a2.213 2.213 0 0 0 .7-1.85l8.465-3.554.013.03a1.658 1.658 0 0 0 2.163.896l4.686-1.941a.528.528 0 0 0 .286-.69l-.238-.577ZM3.93 19.994a.033.033 0 0 1-.02.02l-1.04.43c-.004.002-.014.006-.028 0a.034.034 0 0 1-.019-.019L1.1 16.26a.033.033 0 0 1 0-.027c.005-.014.015-.018.019-.02l1.041-.43c.002-.001.007-.003.013-.003.004 0 .009 0 .014.002a.034.034 0 0 1 .02.02l.862 2.082.647 1.562.216.521a.033.033 0 0 1 0 .027Zm.558-1.44-.445-1.074-.445-1.074 3.71-1.537.89 2.148-3.71 1.537ZM34.475 4.77c.35.844.486 1.748.408 2.643l-1.988-4.801a5.629 5.629 0 0 1 1.58 2.158ZM9.855 18.16a.033.033 0 0 1-.027 0c-.013-.005-.018-.015-.019-.019L8.731 15.54l-.647-1.562-.432-1.042a.033.033 0 0 1 0-.027c.006-.013.016-.017.022-.02l1.07-.449 2.183 5.272-1.072.45Zm9.316-2.98c0 .642-.521 1.163-1.162 1.163a1.164 1.164 0 0 1-1.163-1.162 1.164 1.164 0 0 1 2.325 0Zm-7.153 11.872 5.406-9.73.056.014v9.716h-5.462Zm11.981 0h-5.462v-9.716a2.58 2.58 0 0 0 .056-.015L24 27.052ZM19.861 13.96a2.219 2.219 0 0 0-4.021 1.688L11.9 17.302 9.717 12.03l16.377-6.874 2.184 5.272-8.417 3.533Zm10.593-2.607a.6.6 0 0 1-.783-.324l-3.02-7.29a.595.595 0 0 1 .325-.782l4.198-1.74 3.478 8.397-4.198 1.739Z" fill="#fff"/></g><defs><clipPath id="a"><path fill="#fff" d="M0 0h36v36H0z"/></clipPath></defs></svg>