<svg width="18" height="18" viewBox="0 0 18 18" fill="none" xmlns="http://www.w3.org/2000/svg">
  <g clip-path="url(#a)">
    <path fill-rule="evenodd" clip-rule="evenodd" d="M.889 2.61h1.875l4.778 6.232 3.021 5.11-1.53 2.652L.889 2.61Zm4.718 0h1.378l3.285 4.38 2.206 3.649-1.53 2.651L8 8.314 5.607 2.61Zm3.703 0h1.663l2.104 2.565 1.313 2.15-1.531 2.652-1.996-3.311L9.31 2.61Zm3.651 0h2.474l.867 1.402-1.53 2.65-1.1-1.845-.71-2.207Zm3.723.74-.48-.74h.908l-.427.74Z" fill="#728096" fill-opacity=".6"/>
  </g>
  <defs>
    <clipPath id="a">
      <path fill="#fff" d="M0 0h18v18H0z"/>
    </clipPath>
  </defs>
</svg>
