<svg width="357" height="974" viewBox="0 0 357 974" fill="none" xmlns="http://www.w3.org/2000/svg">
  <path d="M236 401.5H56l-40 40v407l30.25 45" stroke="#4D64D2" stroke-width="8" stroke-linecap="round"/>
  <rect x="108" y="415" width="132" height="26" rx="5" fill="#4D64D2"/>
  <path d="M128.838 432.938V434h-7.092v-12.474h1.224v11.412h5.868Zm2.61-8.856a8.24 8.24 0 0 0 1.926-.954c.564-.396 1.122-.93 1.674-1.602h.828V434h-1.17v-10.692a3.448 3.448 0 0 1-.522.45 7.121 7.121 0 0 1-.702.468c-.264.144-.54.288-.828.432-.288.132-.576.24-.864.324l-.342-.9ZM146.097 434v-12.474h8.01v1.926h-5.742v3.078h5.112v1.89h-5.112v3.654h6.174V434h-8.442Zm12.245-4.734c0 .96.228 1.716.684 2.268.456.54 1.086.81 1.89.81.348 0 .642-.012.882-.036a7.62 7.62 0 0 0 .612-.108v-5.4a3.123 3.123 0 0 0-.774-.36 2.784 2.784 0 0 0-1.008-.18c-.792 0-1.374.27-1.746.81-.36.54-.54 1.272-.54 2.196Zm6.246 4.446c-.432.132-.978.252-1.638.36-.648.108-1.332.162-2.052.162-.744 0-1.41-.114-1.998-.342a4.314 4.314 0 0 1-1.512-.972 4.61 4.61 0 0 1-.954-1.548c-.216-.612-.324-1.296-.324-2.052 0-.744.09-1.416.27-2.016a4.534 4.534 0 0 1 .828-1.566c.36-.432.798-.762 1.314-.99.516-.24 1.11-.36 1.782-.36.456 0 .858.054 1.206.162.348.108.648.228.9.36v-4.518l2.178-.36v13.68Zm10.849 0c-.42.108-.966.216-1.638.324-.672.12-1.41.18-2.214.18-.756 0-1.392-.108-1.908-.324a3.133 3.133 0 0 1-1.224-.9c-.3-.384-.516-.84-.648-1.368a7.42 7.42 0 0 1-.198-1.764v-5.274h2.178v4.932c0 1.008.144 1.728.432 2.16.3.432.816.648 1.548.648.264 0 .54-.012.828-.036.3-.024.522-.054.666-.09v-7.614h2.178v9.126Zm2.61-4.41c0-.696.108-1.344.324-1.944.216-.612.522-1.14.918-1.584a4.34 4.34 0 0 1 1.476-1.044c.576-.252 1.224-.378 1.944-.378a6.59 6.59 0 0 1 2.52.486l-.468 1.782a4.89 4.89 0 0 0-.864-.27 4.477 4.477 0 0 0-1.008-.108c-.852 0-1.5.27-1.944.81-.444.528-.666 1.278-.666 2.25 0 .936.21 1.68.63 2.232.42.54 1.128.81 2.124.81.372 0 .738-.036 1.098-.108a5.16 5.16 0 0 0 .936-.27l.306 1.8c-.24.12-.606.228-1.098.324-.48.096-.978.144-1.494.144-.804 0-1.506-.12-2.106-.36a4.23 4.23 0 0 1-1.476-1.026 4.424 4.424 0 0 1-.864-1.566 6.581 6.581 0 0 1-.288-1.98Zm12.684 3.168c.672 0 1.182-.036 1.53-.108v-2.412a4.866 4.866 0 0 0-1.278-.162c-.24 0-.486.018-.738.054-.24.036-.462.102-.666.198a1.197 1.197 0 0 0-.468.414c-.12.168-.18.384-.18.648 0 .516.162.876.486 1.08.324.192.762.288 1.314.288Zm-.18-8.118c.72 0 1.326.09 1.818.27.492.18.882.432 1.17.756.3.324.51.72.63 1.188.132.456.198.96.198 1.512v5.706c-.336.072-.846.156-1.53.252a14.51 14.51 0 0 1-2.286.162c-.564 0-1.08-.054-1.548-.162a3.344 3.344 0 0 1-1.206-.522 2.577 2.577 0 0 1-.774-.936c-.18-.384-.27-.858-.27-1.422 0-.54.102-.996.306-1.368.216-.372.504-.672.864-.9.36-.24.774-.408 1.242-.504.48-.108.978-.162 1.494-.162.24 0 .492.018.756.054.264.024.546.072.846.144v-.36c0-.252-.03-.492-.09-.72a1.371 1.371 0 0 0-.324-.594 1.36 1.36 0 0 0-.594-.414c-.24-.096-.546-.144-.918-.144-.504 0-.966.036-1.386.108-.42.072-.762.156-1.026.252l-.27-1.764c.276-.096.678-.192 1.206-.288a9.457 9.457 0 0 1 1.692-.144Zm6.735-2.25 2.178-.36v2.844h3.348v1.818h-3.348v3.834c0 .756.12 1.296.36 1.62.24.324.648.486 1.224.486.396 0 .744-.042 1.044-.126.312-.084.558-.162.738-.234l.36 1.728a7.379 7.379 0 0 1-.99.324c-.408.12-.888.18-1.44.18-.672 0-1.236-.09-1.692-.27a2.522 2.522 0 0 1-1.062-.774 3.18 3.18 0 0 1-.558-1.242 7.843 7.843 0 0 1-.162-1.674v-8.154ZM207.474 434h-2.178v-9.414h2.178V434Zm.234-12.168c0 .408-.132.732-.396.972s-.576.36-.936.36c-.372 0-.69-.12-.954-.36s-.396-.564-.396-.972c0-.42.132-.75.396-.99s.582-.36.954-.36c.36 0 .672.12.936.36s.396.57.396.99Zm11.418 7.452c0 .744-.108 1.422-.324 2.034a4.502 4.502 0 0 1-.918 1.566 4.108 4.108 0 0 1-1.44 1.008c-.552.24-1.164.36-1.836.36-.672 0-1.284-.12-1.836-.36a4.149 4.149 0 0 1-1.422-1.008 4.73 4.73 0 0 1-.936-1.566 6.078 6.078 0 0 1-.324-2.034c0-.744.108-1.416.324-2.016a4.73 4.73 0 0 1 .936-1.566 4.124 4.124 0 0 1 1.44-.99 4.51 4.51 0 0 1 1.818-.36c.66 0 1.266.12 1.818.36a3.915 3.915 0 0 1 1.44.99c.396.432.702.954.918 1.566.228.6.342 1.272.342 2.016Zm-2.232 0c0-.936-.204-1.674-.612-2.214-.396-.552-.954-.828-1.674-.828s-1.284.276-1.692.828c-.396.54-.594 1.278-.594 2.214 0 .948.198 1.698.594 2.25.408.552.972.828 1.692.828s1.278-.276 1.674-.828c.408-.552.612-1.302.612-2.25Zm4.836-4.392c.42-.12.966-.234 1.638-.342a14.123 14.123 0 0 1 2.232-.162c.768 0 1.41.108 1.926.324.516.204.924.498 1.224.882.312.372.528.828.648 1.368.132.528.198 1.11.198 1.746V434h-2.178v-4.95c0-.504-.036-.93-.108-1.278-.06-.36-.168-.648-.324-.864a1.177 1.177 0 0 0-.612-.486c-.252-.108-.564-.162-.936-.162-.276 0-.564.018-.864.054-.3.036-.522.066-.666.09V434h-2.178v-9.108Z" fill="#fff"/>
  <path d="M353 4v330l-56 56.5H52l-47.5 47v415l30.875 45.75" stroke="#EC585D" stroke-width="8" stroke-linecap="round"/>
  <rect x="248" width="90" height="26" rx="5" fill="#EC585D"/>
  <path d="M266.689 18.938V20h-7.092V7.526h1.224v11.412h5.868Zm8.891-8.316c0 .468-.084.912-.252 1.332a5.42 5.42 0 0 1-.684 1.188 9.056 9.056 0 0 1-.954 1.116c-.36.36-.726.72-1.098 1.08-.312.3-.618.606-.918.918-.288.3-.552.606-.792.918-.228.3-.414.6-.558.9a2.058 2.058 0 0 0-.198.864v.036h5.886V20h-7.182a.758.758 0 0 0-.018-.126v-.306c0-.564.102-1.086.306-1.566.204-.492.462-.954.774-1.386a10.18 10.18 0 0 1 1.062-1.206 109.706 109.706 0 0 0 1.98-1.908c.276-.276.516-.558.72-.846.204-.288.366-.594.486-.918.12-.324.18-.678.18-1.062 0-.84-.228-1.44-.684-1.8-.444-.372-1.008-.558-1.692-.558-.384 0-.726.048-1.026.144-.3.096-.564.21-.792.342-.216.12-.402.246-.558.378-.156.132-.27.234-.342.306l-.612-.81c.072-.084.198-.204.378-.36.192-.168.426-.33.702-.486.288-.156.618-.288.99-.396.372-.12.786-.18 1.242-.18 1.212 0 2.124.3 2.736.9.612.588.918 1.41.918 2.466Zm16.359-1.692c.192.648.396 1.326.612 2.034.216.696.438 1.398.666 2.106.24.696.474 1.386.702 2.07l.684 1.908c.18-.648.354-1.35.522-2.106a134.465 134.465 0 0 0 .99-4.896c.168-.852.324-1.692.468-2.52h2.34c-.42 2.256-.888 4.428-1.404 6.516A77.57 77.57 0 0 1 295.791 20h-2.16a116.872 116.872 0 0 1-2.718-7.938 112.717 112.717 0 0 1-1.35 4.14A190.793 190.793 0 0 1 288.195 20h-2.16a72.486 72.486 0 0 1-1.746-5.958 126.3 126.3 0 0 1-1.386-6.516h2.43c.144.816.294 1.65.45 2.502.168.852.336 1.692.504 2.52.18.816.36 1.608.54 2.376.18.768.36 1.476.54 2.124a69.32 69.32 0 0 0 .684-1.926c.24-.684.474-1.374.702-2.07.228-.708.444-1.41.648-2.106.216-.696.414-1.368.594-2.016h1.944Zm17.333 6.354c0 .744-.108 1.422-.324 2.034a4.502 4.502 0 0 1-.918 1.566 4.108 4.108 0 0 1-1.44 1.008c-.552.24-1.164.36-1.836.36-.672 0-1.284-.12-1.836-.36a4.149 4.149 0 0 1-1.422-1.008 4.73 4.73 0 0 1-.936-1.566 6.078 6.078 0 0 1-.324-2.034c0-.744.108-1.416.324-2.016a4.73 4.73 0 0 1 .936-1.566 4.124 4.124 0 0 1 1.44-.99 4.51 4.51 0 0 1 1.818-.36c.66 0 1.266.12 1.818.36a3.915 3.915 0 0 1 1.44.99c.396.432.702.954.918 1.566.228.6.342 1.272.342 2.016Zm-2.232 0c0-.936-.204-1.674-.612-2.214-.396-.552-.954-.828-1.674-.828s-1.284.276-1.692.828c-.396.54-.594 1.278-.594 2.214 0 .948.198 1.698.594 2.25.408.552.972.828 1.692.828s1.278-.276 1.674-.828c.408-.552.612-1.302.612-2.25Zm10.2-2.736c-.18-.06-.432-.12-.756-.18a4.927 4.927 0 0 0-1.872-.036c-.264.048-.45.09-.558.126V20h-2.178v-8.964c.42-.156.942-.3 1.566-.432a9.546 9.546 0 0 1 2.106-.216c.144 0 .312.012.504.036.192.012.384.036.576.072.192.024.378.06.558.108.18.036.324.072.432.108l-.378 1.836Zm4.433 1.71.882-.918.918-.99c.3-.336.582-.654.846-.954.276-.312.51-.582.702-.81h2.574c-.6.672-1.236 1.368-1.908 2.088a83.9 83.9 0 0 1-1.998 2.106c.36.3.738.666 1.134 1.098.396.42.78.87 1.152 1.35.372.48.72.96 1.044 1.44.324.48.594.924.81 1.332h-2.52a15.786 15.786 0 0 0-.756-1.17 14.046 14.046 0 0 0-.9-1.188 17.337 17.337 0 0 0-.99-1.08 8.062 8.062 0 0 0-.99-.882V20h-2.178V6.392l2.178-.36v8.226Z" fill="#fff"/>
  <path d="m58.44 924.036-11.312-14.717 4.854-3.527 10.502 15.306-4.045 2.938ZM75.204 946.26l-11.311-14.718 4.045-2.939 10.502 15.306-3.236 2.351ZM86.515 960.978l-5.858-7.212 3.236-2.351 5.05 7.8-2.428 1.763Z" fill="#425B80"/>
  <path d="m58.44 924.036-11.312-14.717 4.854-3.527 10.502 15.306-4.045 2.938ZM75.204 946.26l-11.311-14.718 4.045-2.939 10.502 15.306-3.236 2.351ZM88.5 964l-7.843-10.234 3.236-2.351L92.5 964h-4Z" fill="#425B80"/>
  <path d="M30 904.458 52.653 888" stroke="#425B80" stroke-width="10" stroke-linecap="round"/>
</svg>
