<svg width="32" height="32" viewBox="0 0 32 32" fill="none" xmlns="http://www.w3.org/2000/svg"><path d="m26.94 8.707.94-.94a.707.707 0 0 0 .799-.14l.167-.168a.71.71 0 0 0 0-1.004L27.641 5.25a.71.71 0 0 0-1.004 0l-.167.168a.71.71 0 0 0 0 1.003l.037.037-.87.872A14.152 14.152 0 0 0 17.29 3.62v-.868h.126a1.18 1.18 0 0 0 1.18-1.18V1.18A1.18 1.18 0 0 0 17.416 0h-2.832a1.18 1.18 0 0 0-1.18 1.18v.393c0 .652.528 1.18 1.18 1.18h.125v.864C7.76 4.238 2.193 9.892 1.801 16.995c-.432 7.83 5.586 14.55 13.415 14.983.267.015.531.022.795.022 7.54 0 13.772-5.902 14.188-13.438a14.166 14.166 0 0 0-3.259-9.855Zm1.366 9.75c-.373 6.76-6.148 12.001-12.985 11.627-6.785-.374-12-6.199-11.627-12.985.36-6.53 5.76-11.645 12.295-11.645.23 0 .458.006.69.019 6.786.374 12.002 6.2 11.627 12.984Zm-10.047-.679a2.258 2.258 0 1 1-2.904-2.163V8.817a.646.646 0 0 1 1.29 0v6.798a2.258 2.258 0 0 1 1.614 2.163Z" fill="#fff"/></svg>